# xmcd
#
# Track frame offsets: 
#        150
#        10151
#        22906
#        34692
#        45390
#        58981
#        70490
#        83041
#        101724
#        114295
#        125681
#        139334
#        158842
#        174404
#
# Disc length: 2479 seconds
#
# Revision: 0
# Processed by: cddbd v1.5.2PL0 Copyright (c) Steve Scherf et al.
# Submitted via: ExactAudioCopy v0.99pb4
#
DISCID=b609ad0e
DTITLE=Billy Joe Royal - Down In The Boondocks
DYEAR=1900
DGENRE=Country
TTITLE0=Campfire Girls
TTITLE1=Cherry Hill Park
TTITLE2=Down In The Boondocks
TTITLE3=Hush
TTITLE4=I Gotta Be Somebody
TTITLE5=I Knew You When
TTITLE6=On Brodway
TTITLE7=Please Come To Boston
TTITLE8=Raindorps Keep Falling On My Head
TTITLE9=Save The Last Dance For My
TTITLE10=Stand By My
TTITLE11=To Love Somebody
TTITLE12=Tulsa
TTITLE13=Up On The Roof
EXTD=
EXTT0=
EXTT1=
EXTT2=
EXTT3=
EXTT4=
EXTT5=
EXTT6=
EXTT7=
EXTT8=
EXTT9=
EXTT10=
EXTT11=
EXTT12=
EXTT13=
PLAYORDER=
